# xmcd
#
# Track frame offsets: 
#        150
#        18640
#        38982
#        51374
#        68879
#        85311
#        102301
#
# Disc length: 1645 seconds
#
# Revision: 5
# Processed by: cddbd v1.5.2PL0 Copyright (c) Steve Scherf et al.
# Submitted via: ExactAudioCopy v1.0b3
#
DISCID=5d066b07
DTITLE=山崎まさよし - STEREO 2
DYEAR=1997
DGENRE=Japanese Pops
TTITLE0=Good morning
TTITLE1=あじさい
TTITLE2=ピアノ
TTITLE3=長男
TTITLE4=ピンボール
TTITLE5=星に願いを
TTITLE6=振り向かない (prototype '94)
EXTD=YEAR: 1997
EXTT0=
EXTT1=
EXTT2=
EXTT3=
EXTT4=
EXTT5=
EXTT6=
PLAYORDER=
